<svg viewBox="0 0 315.89723 396.84860082304533" xmlns="http://www.w3.org/2000/svg" data-name="Capa 2" id="Capa_2" style="max-height: 500px" width="315.89723" height="396.84860082304533">
  <defs>
    <style>
      .cls-1 {
        fill: #fff;
      }
    </style>
  </defs>
  <g data-name="Capa 1" id="Capa_1-2">
    <g>
      <path d="M57.28,82.38c-2.04,6.4-3.05,13.99-3.05,22.84s1.01,16.44,3.05,22.84c2.05,6.42,5.14,11.65,9.3,15.81,4.16,4.16,9.39,7.24,15.81,9.3,6.4,2.04,13.99,3.05,22.84,3.05,10.14,0,16.91,1.71,21.15,5.96s5.96,11.02,5.96,21.15-1.71,16.91-5.96,21.15c-4.25,4.25-11.02,5.96-21.15,5.96-8.85,0-16.44,1.01-22.84,3.05-6.42,2.05-11.65,5.14-15.81,9.3-4.16,4.16-7.24,9.39-9.3,15.81-2.04,6.4-3.05,13.99-3.05,22.84s1.01,16.44,3.05,22.85c2.05,6.4,5.14,11.65,9.3,15.81,4.16,4.16,9.39,7.24,15.81,9.29,6.4,2.04,13.99,3.05,22.84,3.05,10.14,0,16.91,1.71,21.15,5.96s5.96,11.02,5.96,21.15-1.71,16.92-5.96,21.15c-4.25,4.25-11.02,5.96-21.15,5.96s-16.91-1.71-21.15-5.96c-4.25-4.24-5.96-11.02-5.96-21.15,0-8.85-1.01-16.43-3.05-22.84-2.05-6.42-5.14-11.65-9.3-15.81s-9.39-7.24-15.81-9.3c-6.4-2.04-13.99-3.05-22.84-3.05-10.14,0-16.91-1.71-21.15-5.96-4.25-4.24-5.96-11.02-5.96-21.15s1.71-16.91,5.96-21.15c4.25-4.25,11.02-5.96,21.15-5.96,8.85,0,16.44-1.01,22.84-3.05,6.42-2.04,11.65-5.13,15.81-9.29,4.16-4.17,7.24-9.4,9.3-15.82,2.04-6.4,3.05-13.99,3.05-22.84s-1.01-16.44-3.05-22.84c-2.05-6.42-5.14-11.65-9.3-15.81-4.16-4.16-9.39-7.24-15.81-9.3-6.4-2.04-13.99-3.05-22.84-3.05-10.14,0-16.91-1.71-21.15-5.96-4.25-4.25-5.96-11.02-5.96-21.15s1.71-16.91,5.96-21.15c4.25-4.25,11.02-5.96,21.15-5.96,8.85,0,16.44-1.01,22.84-3.05,6.42-2.05,11.65-5.14,15.81-9.3,4.16-4.16,7.24-9.39,9.3-15.81,2.04-6.4,3.05-13.99,3.05-22.84,0-10.14,1.71-16.91,5.96-21.15,4.25-4.25,11.02-5.96,21.15-5.96s16.91,1.71,21.15,5.96c4.25,4.25,5.96,11.02,5.96,21.15s-1.71,16.91-5.96,21.15-11.02,5.96-21.15,5.96c-8.85,0-16.44,1.01-22.84,3.05-6.42,2.05-11.65,5.14-15.81,9.3-4.16,4.16-7.24,9.39-9.3,15.81ZM234.33,105.22c0-8.85-1.01-16.44-3.05-22.84-2.05-6.42-5.14-11.65-9.3-15.81-4.14-4.16-9.39-7.24-15.79-9.3-6.42-2.04-14-3.05-22.85-3.05-10.14,0-16.91-1.71-21.15-5.96s-5.96-11.02-5.96-21.15,1.71-16.91,5.96-21.15c4.25-4.25,11.02-5.96,21.15-5.96s16.91,1.71,21.15,5.96c4.25,4.25,5.96,11.02,5.96,21.15,0,8.85,1.01,16.44,3.05,22.84,2.05,6.42,5.14,11.65,9.3,15.81,4.16,4.16,9.39,7.24,15.81,9.3,6.4,2.04,13.99,3.05,22.84,3.05,10.14,0,16.92,1.71,21.15,5.96,4.25,4.25,5.96,11.02,5.96,21.15s-1.71,16.91-5.96,21.15c-4.24,4.25-11.02,5.96-21.15,5.96s-16.91-1.71-21.15-5.96c-4.25-4.25-5.96-11.02-5.96-21.15ZM204.49,162.18c4.25,4.25,5.96,11.02,5.96,21.15s-1.71,16.91-5.96,21.15c-4.25,4.25-11.02,5.96-21.15,5.96s-16.91-1.71-21.15-5.96c-4.25-4.25-5.96-11.02-5.96-21.15s1.71-16.91,5.96-21.15,11.02-5.96,21.15-5.96,16.91,1.71,21.15,5.96ZM300.5,261.44c0,10.14-1.71,16.92-5.96,21.15-4.24,4.25-11.02,5.96-21.15,5.96-8.85,0-16.44,1.01-22.84,3.05-6.42,2.05-11.65,5.14-15.81,9.3-4.16,4.16-7.24,9.39-9.3,15.81-2.04,6.4-3.05,13.99-3.05,22.84,0,10.14-1.71,16.92-5.96,21.15-4.24,4.25-11.02,5.96-21.15,5.96s-16.91-1.71-21.15-5.96c-4.25-4.24-5.96-11.02-5.96-21.15s1.71-16.91,5.96-21.15,11.02-5.96,21.15-5.96c8.85,0,16.44-1.01,22.85-3.05,6.4-2.04,11.64-5.13,15.81-9.29,4.16-4.16,7.23-9.4,9.29-15.81,2.05-6.42,3.06-14,3.06-22.85,0-10.14,1.71-16.91,5.95-21.15,4.25-4.25,11.02-5.96,21.15-5.96s16.92,1.71,21.15,5.96c4.25,4.25,5.96,11.02,5.96,21.15Z" class="cls-1"/>
      <g>
        <path d="M511.5,114.47c-6.75-7.69-14.92-13.81-24.52-18.34-9.6-4.53-20.5-6.8-32.73-6.8-15.39,0-29.26,3.79-41.59,11.38-12.34,7.6-22.1,17.99-29.26,31.15-7.17,13.18-10.76,28.31-10.76,45.39s3.7,32.37,11.08,45.86c7.37,13.5,17.44,24.09,30.2,31.78,12.75,7.7,27.04,11.55,42.85,11.55,11.59,0,22.19-1.95,31.78-5.85,9.6-3.9,17.87-9.07,24.83-15.5,6.96-6.43,12.12-13.44,15.5-21.03l-20.24-10.76c-5.28,8.85-12.13,16.24-20.56,22.14-8.44,5.9-18.87,8.85-31.31,8.85-10.76,0-20.82-2.74-30.2-8.22-9.39-5.49-16.76-13.23-22.14-23.24-4.33-8.08-6.47-17.34-6.62-27.67h133.29c.41-2.74.73-5.43.95-8.07.21-2.63.31-5,.31-7.12,0-10.11-1.79-19.97-5.37-29.57-3.59-9.58-8.76-18.23-15.5-25.93ZM425,119.69c8.96-5.49,18.71-8.23,29.26-8.23s20.03,2.69,28.46,8.07c8.44,5.37,14.92,12.65,19.46,21.82,3.25,6.59,4.79,13.82,4.72,21.66h-108.66c.79-7.48,2.61-14.33,5.74-20.4,5.06-9.8,12.06-17.45,21.03-22.92Z" class="cls-1"/>
        <path d="M663.14,97.55c-9.6-5.49-20.4-8.22-32.42-8.22-12.65,0-23.77,3.16-33.37,9.48-6.32,4.17-11.35,9.44-15.34,15.62v-21.31h-23.71v169.51h23.71v-100.88c0-10.12,1.89-18.81,5.69-26.09,3.79-7.28,9.06-12.86,15.81-16.76,6.75-3.9,14.44-5.85,23.09-5.85s16.29,1.95,22.92,5.85c6.65,3.9,11.81,9.44,15.5,16.6,3.68,7.17,5.53,15.92,5.53,26.25v100.88h23.73v-110.06c0-12.02-2.8-22.82-8.38-32.42-5.59-9.6-13.18-17.13-22.77-22.61Z" class="cls-1"/>
        <path d="M792.64,242.4c-6.96,0-12.49-1.27-16.61-3.8-4.11-2.53-7.01-5.96-8.69-10.27-1.7-4.33-2.54-9.33-2.54-15.03v-96.45h37.32v-23.73h-37.32v-39.21h-23.71v14.23c0,7.16-2.11,13.12-6.32,17.86-4.22,4.75-9.92,7.12-17.08,7.12h-7.91v23.73h31.31v96.45c0,16.45,4.11,29.1,12.33,37.95,8.23,8.86,19.93,13.28,35.11,13.28,1.89,0,4.42-.15,7.59-.47,3.16-.32,6-.79,8.54-1.42v-21.19c-1.69.22-3.7.42-6.01.63-2.32.22-4.32.32-6,.32Z" class="cls-1"/>
        <polygon points="830.59 262.63 854.31 262.63 854.31 116.85 912.81 116.85 912.81 93.12 830.59 93.12 830.59 262.63" class="cls-1"/>
        <path d="M1051.96,114.47c-6.75-7.69-14.92-13.81-24.52-18.34-9.6-4.53-20.5-6.8-32.73-6.8-15.39,0-29.26,3.79-41.59,11.38-12.34,7.6-22.1,17.99-29.26,31.15-7.17,13.18-10.76,28.31-10.76,45.39s3.7,32.37,11.08,45.86c7.37,13.5,17.44,24.09,30.2,31.78,12.75,7.7,27.04,11.55,42.85,11.55,11.59,0,22.19-1.95,31.78-5.85,9.6-3.9,17.87-9.07,24.83-15.5,6.96-6.43,12.12-13.44,15.5-21.03l-20.24-10.76c-5.28,8.85-12.13,16.24-20.56,22.14-8.44,5.9-18.87,8.85-31.31,8.85-10.76,0-20.82-2.74-30.2-8.22-9.39-5.49-16.76-13.23-22.14-23.24-4.33-8.08-6.47-17.34-6.62-27.67h133.29c.41-2.74.73-5.43.95-8.07.21-2.63.31-5,.31-7.12,0-10.11-1.79-19.97-5.37-29.57-3.59-9.58-8.76-18.23-15.5-25.93ZM965.46,119.69c8.96-5.49,18.71-8.23,29.26-8.23s20.03,2.69,28.46,8.07c8.44,5.37,14.92,12.65,19.46,21.82,3.25,6.59,4.79,13.82,4.72,21.66h-108.66c.79-7.48,2.61-14.33,5.74-20.4,5.06-9.8,12.06-17.45,21.03-22.92Z" class="cls-1"/>
        <path d="M1146.05,121.43c8.95-5.58,19.02-8.38,30.2-8.38s21.07,2.85,29.73,8.54c8.64,5.69,15.07,13.07,19.28,22.13l21.51-11.07c-3.59-8.43-8.96-15.86-16.13-22.29-7.17-6.43-15.39-11.55-24.67-15.35-9.29-3.79-19.19-5.68-29.73-5.68-16.66,0-31.31,3.85-43.96,11.54-12.65,7.7-22.57,18.18-29.73,31.47-7.17,13.28-10.76,28.35-10.76,45.23s3.58,31.99,10.76,45.37c7.16,13.4,17.08,23.99,29.73,31.78,12.65,7.81,27.31,11.71,43.96,11.71,10.54,0,20.44-1.91,29.73-5.69,9.27-3.8,17.49-8.96,24.67-15.5,7.16-6.53,12.53-13.92,16.13-22.14l-21.51-11.7c-4.42,9.48-10.9,17.07-19.44,22.76-8.54,5.69-18.4,8.54-29.57,8.54s-21.25-2.85-30.2-8.54c-8.96-5.69-16.04-13.44-21.19-23.24-5.18-9.8-7.75-20.81-7.75-33.05s2.57-23.57,7.75-33.37c5.15-9.8,12.22-17.49,21.19-23.08Z" class="cls-1"/>
        <path d="M1396.2,100.71c-12.97-7.59-27.67-11.38-44.12-11.38s-31.15,3.85-44.11,11.54c-12.97,7.7-23.26,18.18-30.84,31.47-7.59,13.28-11.39,28.35-11.39,45.23s3.85,32.31,11.55,45.7c7.69,13.38,18.08,23.93,31.15,31.62,13.07,7.7,27.62,11.55,43.64,11.55s30.2-3.8,43.17-11.39c12.97-7.59,23.35-18.08,31.15-31.47,7.79-13.38,11.7-28.72,11.7-46.01s-3.74-32.27-11.23-45.55c-7.48-13.28-17.71-23.71-30.67-31.31ZM1404.73,210.76c-5.37,9.92-12.65,17.71-21.82,23.4-9.17,5.69-19.44,8.54-30.83,8.54s-21.66-2.85-30.83-8.54c-9.17-5.69-16.51-13.49-21.98-23.4-5.49-9.91-8.22-20.97-8.22-33.2s2.73-23.2,8.22-32.9c5.48-9.7,12.81-17.39,21.98-23.08,9.17-5.69,19.44-8.54,30.83-8.54s21.66,2.85,30.83,8.54c9.17,5.69,16.45,13.38,21.82,23.08,5.38,9.7,8.07,20.66,8.07,32.9s-2.69,23.29-8.07,33.2Z" class="cls-1"/>
        <path d="M1508.62,243.97c-13.91,0-20.87-6.43-20.87-19.28V53.91h-23.71v172.67c0,12.44,3.63,21.88,10.9,28.31,7.28,6.43,17.65,9.64,31.15,9.64h5.37v-20.56h-2.85Z" class="cls-1"/>
      </g>
    </g>
  </g>
</svg>